<svg id="Layer_1" data-name="Layer 1" xmlns="http://www.w3.org/2000/svg" viewBox="0 0 512 512"><title>black</title><g id="_Group_" data-name="&lt;Group&gt;"><path d="M366.6,12.5c2.7,4.1,10.6,35.4,10.1,39.7-.3,2.5-2.8,7-7.3,13.5C346,99.5,329.3,123.5,320,137l-10.7,15.5,3.8,30c2.1,16.5,8.8,69.4,14.8,117.5s12,95.1,13.2,104.4c1.9,14.6,2,17.2.8,19.7-.8,1.6-18.9,19.8-40.4,40.4l-39,37.4-6.5.1h-6.5L235,486.3c-8-8.7-18.1-19.6-22.5-24.3s-13.2-14.1-19.5-20.9c-14.1-15.2-15-16.4-15-22.1,0-2.5,5.6-63.4,12.4-135.5l12.4-130.9L192.1,137c-9.7-14-31.4-45.2-49.5-71.3-4.5-6.5-7-11-7.3-13.5-.5-4.3,7.4-35.6,10.1-39.7,1.5-2.2,2.3-2.5,8-2.5,6.6,0,9.3,1.2,27.4,11.9a59.69,59.69,0,0,0,5.7,3.1c.3,0,10.4,5.6,22.5,12.5S231.1,50,231.3,50s5.4,2.9,11.7,6.5S255.1,63,256,63s6.7-2.9,13-6.5S280.5,50,280.7,50s10.2-5.6,22.3-12.5S325.2,25,325.5,25a59.69,59.69,0,0,0,5.7-3.1C349.3,11.2,352,10,358.6,10,364.3,10,365.1,10.3,366.6,12.5ZM256,140c20.7,0,24.1-.2,23.8-1.5-.2-.8-5.5-10.4-11.8-21.4s-11.7-20-12-20c-.7,0-23.4,39.6-23.8,41.4C231.9,139.8,235.3,140,256,140Z"/></g></svg>